<?xml version="1.0" standalone="no"?>
<!DOCTYPE svg PUBLIC "-//W3C//DTD SVG 20010904//EN"
 "http://www.w3.org/TR/2001/REC-SVG-20010904/DTD/svg10.dtd">
<svg version="1.0" xmlns="http://www.w3.org/2000/svg"
 width="500.000000pt" height="500.000000pt" viewBox="0 0 500.000000 500.000000"
 preserveAspectRatio="xMidYMid meet">
<metadata>
Created by potrace 1.14, written by Peter Selinger 2001-2017
</metadata>
<g transform="translate(0.000000,500.000000) scale(0.100000,-0.100000)"
fill="#000000" stroke="none">
<path d="M2840 4543 c0 -4 -118 -9 -263 -10 -317 -2 -372 -4 -387 -13 -7 -4
-27 -4 -46 0 -18 4 -36 5 -39 2 -3 -3 -43 -7 -89 -8 -46 -1 -105 -5 -132 -9
-78 -10 -117 -16 -144 -21 -14 -3 -42 -7 -63 -9 -21 -2 -46 -6 -55 -9 -9 -3
-34 -8 -55 -11 -21 -4 -53 -13 -71 -20 -18 -8 -35 -13 -37 -12 -2 1 -3 0 -2
-1 1 -2 -8 -15 -20 -29 -12 -13 -22 -28 -23 -31 0 -4 -5 -18 -11 -32 -6 -14
-16 -52 -24 -85 -15 -72 -16 -74 -18 -77 -2 -2 -5 -14 -7 -28 -10 -52 -13 -65
-14 -65 -3 0 -12 -41 -13 -62 0 -13 -4 -23 -7 -23 -3 0 -6 -8 -7 -17 -2 -27
-20 -108 -23 -108 -1 0 -4 -11 -5 -25 -2 -14 -9 -43 -14 -65 -6 -22 -13 -56
-17 -75 -3 -19 -8 -44 -11 -55 -9 -27 -13 -46 -18 -72 -7 -43 -17 -63 -33 -64
-59 -4 -130 11 -206 42 -60 25 -85 30 -156 32 -64 1 -160 -20 -160 -36 0 -6
-3 -8 -6 -4 -4 3 -15 -4 -25 -16 -10 -12 -18 -18 -19 -12 0 18 -49 -62 -54
-89 -2 -14 -7 -30 -11 -36 -3 -5 -6 -43 -6 -84 0 -60 4 -81 25 -117 14 -24 30
-43 35 -41 6 1 11 -1 11 -6 0 -18 136 -57 235 -67 17 -2 30 -4 30 -6 0 -1 9
-3 20 -4 11 -2 43 -6 70 -10 28 -3 73 -8 101 -9 28 -2 56 -6 62 -10 6 -4 11
-46 11 -104 0 -53 2 -108 5 -122 13 -68 13 -81 -3 -90 -9 -5 -13 -10 -9 -10 4
0 1 -15 -6 -32 -7 -18 -13 -45 -12 -60 1 -16 -1 -28 -4 -28 -4 0 -6 -25 -6
-55 1 -30 3 -55 6 -55 3 0 6 -22 7 -48 2 -27 9 -67 17 -90 8 -23 13 -42 10
-42 -2 0 0 -9 6 -21 6 -11 13 -29 15 -39 8 -40 59 -180 66 -180 4 0 6 -8 5
-17 -2 -10 0 -20 3 -23 7 -5 70 -190 76 -222 2 -10 7 -23 10 -28 5 -9 8 -19
18 -65 2 -5 6 -16 10 -22 5 -7 6 -13 2 -13 -3 0 2 -16 10 -36 8 -20 15 -45 15
-55 0 -11 5 -19 11 -19 5 0 8 -4 5 -8 -5 -8 47 -98 74 -129 5 -7 10 -19 10
-28 0 -8 3 -15 8 -15 4 0 18 -24 32 -53 14 -28 30 -55 35 -59 6 -4 7 -8 2 -8
-4 0 2 -19 14 -43 12 -23 22 -44 22 -47 0 -3 11 -22 23 -42 13 -21 24 -42 24
-48 0 -5 5 -10 10 -10 6 0 10 -5 10 -11 0 -6 9 -24 21 -40 11 -16 21 -38 22
-49 1 -11 6 -20 11 -20 5 0 7 -3 3 -6 -3 -4 1 -13 9 -21 8 -8 12 -18 9 -23 -3
-4 2 -13 10 -20 8 -7 15 -17 15 -22 0 -21 76 -135 117 -175 23 -23 64 -52 90
-64 63 -29 153 -59 153 -52 0 3 6 0 13 -6 8 -6 27 -13 43 -15 16 -2 36 -6 44
-10 8 -3 29 -7 45 -9 17 -2 35 -6 40 -8 6 -3 28 -7 50 -8 22 -2 44 -6 50 -9
11 -7 31 -10 98 -16 27 -3 51 -7 54 -9 2 -3 18 -1 34 3 18 5 29 5 29 -1 0 -6
8 -5 20 1 15 8 20 8 20 -1 0 -8 4 -8 13 -1 7 6 32 13 55 14 23 2 42 6 42 9 0
3 6 6 13 6 31 2 74 10 82 15 6 3 26 9 45 14 46 10 49 11 58 14 4 1 10 2 15 1
4 0 7 3 7 7 0 5 6 9 13 9 47 0 245 132 231 154 -3 5 -1 9 5 9 10 0 80 125 82
145 0 6 7 14 15 18 8 4 14 15 14 22 0 8 4 15 8 15 8 0 36 60 33 72 0 5 3 8 7
8 5 0 19 25 31 55 13 30 28 55 34 55 6 0 8 3 4 6 -3 4 2 23 13 44 11 21 16 40
13 44 -4 3 -1 6 5 6 7 0 11 3 10 8 -1 7 5 27 22 67 10 23 24 67 25 77 0 3 3
10 8 14 4 4 7 14 7 23 0 9 6 28 14 43 8 14 19 43 26 65 7 21 17 44 23 51 5 7
7 15 4 19 -4 3 -1 15 5 27 7 11 13 27 15 34 6 24 10 37 17 54 4 9 9 23 10 32
1 8 5 19 9 22 4 4 7 17 7 29 0 12 3 25 7 29 7 6 11 20 17 61 2 11 5 21 6 23 3
2 2 1 15 57 4 22 9 45 11 50 3 12 12 46 19 77 6 23 15 70 19 98 1 9 5 20 8 25
5 8 12 44 23 110 1 6 3 12 4 15 3 5 6 27 12 83 2 15 7 27 12 27 4 0 3 8 -2 19
-6 10 -7 21 -4 25 10 10 13 46 13 161 0 164 -4 245 -12 245 -4 0 -4 8 -1 17 4
10 7 32 6 51 0 36 9 45 47 48 14 1 63 4 108 8 179 12 312 32 312 48 0 5 3 7 8
4 4 -2 25 7 47 20 22 13 37 24 32 24 -4 0 0 11 8 24 9 13 15 28 14 32 -1 5 0
11 1 14 5 11 5 170 0 170 -3 0 -7 15 -8 33 -2 17 -7 34 -12 35 -6 2 -10 13
-10 23 0 11 -4 18 -9 15 -4 -3 -13 6 -19 19 -7 14 -16 25 -22 25 -5 0 -10 5
-10 10 0 6 -9 20 -20 32 -11 12 -20 18 -20 14 0 -5 -7 -3 -15 4 -40 34 -193
27 -269 -12 -23 -12 -43 -21 -46 -21 -3 0 -15 -3 -28 -8 -34 -13 -108 -11
-119 4 -6 6 -14 26 -18 42 -5 17 -9 32 -10 35 -15 53 -79 251 -87 267 -6 11
-7 26 -4 32 4 6 2 11 -4 11 -7 0 -10 6 -7 14 3 7 1 18 -3 22 -5 5 -11 18 -13
29 -1 11 -5 25 -8 30 -4 6 -12 31 -20 58 -7 26 -16 47 -20 47 -4 0 -6 8 -4 18
1 9 -2 22 -6 28 -15 18 -48 122 -42 128 4 3 2 6 -4 6 -5 0 -10 6 -11 13 -2 24
-8 47 -15 53 -4 4 -7 15 -7 25 0 20 -33 84 -56 106 -7 8 -14 12 -14 9 0 -3
-16 3 -36 14 -19 11 -32 15 -28 8 6 -10 4 -10 -7 -2 -8 6 -34 12 -58 13 -24 1
-52 6 -62 12 -11 6 -20 6 -24 -1 -3 -5 -15 -6 -28 -1 -18 6 -208 6 -337 -1
-20 -1 -41 1 -48 6 -7 4 -12 4 -12 -1z"/>
</g>
</svg>
